<svg xmlns="http://www.w3.org/2000/svg" version="1.1" xmlns:xlink="http://www.w3.org/1999/xlink" xmlns:svgjs="http://svgjs.dev/svgjs" viewBox="0 0 1422 800"><defs><linearGradient x1="50%" y1="0%" x2="50%" y2="100%" id="oooscillate-grad"><stop stop-color="hsl(206, 75%, 49%)" stop-opacity="1" offset="0%"></stop><stop stop-color="hsl(331, 90%, 56%)" stop-opacity="1" offset="100%"></stop></linearGradient></defs><g stroke-width="2" stroke="url(#oooscillate-grad)" fill="none" stroke-linecap="round"><path d="M 0 456 Q 355.5 -45 711 400 Q 1066.5 845 1422 456" stroke-dasharray="2 1" opacity="1.00"></path><path d="M 0 437 Q 355.5 -45 711 400 Q 1066.5 845 1422 437" stroke-dasharray="5 4" opacity="0.96"></path><path d="M 0 418 Q 355.5 -45 711 400 Q 1066.5 845 1422 418" stroke-dasharray="5 5" opacity="0.92"></path><path d="M 0 399 Q 355.5 -45 711 400 Q 1066.5 845 1422 399" stroke-dasharray="2 2" opacity="0.88"></path><path d="M 0 380 Q 355.5 -45 711 400 Q 1066.5 845 1422 380" stroke-dasharray="6 8" opacity="0.83"></path><path d="M 0 361 Q 355.5 -45 711 400 Q 1066.5 845 1422 361" stroke-dasharray="8 4" opacity="0.79"></path><path d="M 0 342 Q 355.5 -45 711 400 Q 1066.5 845 1422 342" stroke-dasharray="6 0" opacity="0.75"></path><path d="M 0 323 Q 355.5 -45 711 400 Q 1066.5 845 1422 323" stroke-dasharray="8 4" opacity="0.71"></path><path d="M 0 304 Q 355.5 -45 711 400 Q 1066.5 845 1422 304" stroke-dasharray="7 7" opacity="0.67"></path><path d="M 0 285 Q 355.5 -45 711 400 Q 1066.5 845 1422 285" stroke-dasharray="7 4" opacity="0.63"></path><path d="M 0 266 Q 355.5 -45 711 400 Q 1066.5 845 1422 266" stroke-dasharray="7 1" opacity="0.59"></path><path d="M 0 247 Q 355.5 -45 711 400 Q 1066.5 845 1422 247" stroke-dasharray="7 4" opacity="0.55"></path><path d="M 0 228 Q 355.5 -45 711 400 Q 1066.5 845 1422 228" stroke-dasharray="8 2" opacity="0.50"></path><path d="M 0 209 Q 355.5 -45 711 400 Q 1066.5 845 1422 209" stroke-dasharray="7 7" opacity="0.46"></path><path d="M 0 190 Q 355.5 -45 711 400 Q 1066.5 845 1422 190" stroke-dasharray="9 9" opacity="0.42"></path><path d="M 0 171 Q 355.5 -45 711 400 Q 1066.5 845 1422 171" stroke-dasharray="8 6" opacity="0.38"></path><path d="M 0 152 Q 355.5 -45 711 400 Q 1066.5 845 1422 152" stroke-dasharray="5 8" opacity="0.34"></path><path d="M 0 133 Q 355.5 -45 711 400 Q 1066.5 845 1422 133" stroke-dasharray="8 4" opacity="0.30"></path><path d="M 0 114 Q 355.5 -45 711 400 Q 1066.5 845 1422 114" stroke-dasharray="8 6" opacity="0.26"></path><path d="M 0 95 Q 355.5 -45 711 400 Q 1066.5 845 1422 95" stroke-dasharray="4 2" opacity="0.22"></path><path d="M 0 76 Q 355.5 -45 711 400 Q 1066.5 845 1422 76" stroke-dasharray="0 5" opacity="0.17"></path><path d="M 0 57 Q 355.5 -45 711 400 Q 1066.5 845 1422 57" stroke-dasharray="5 7" opacity="0.13"></path><path d="M 0 38 Q 355.5 -45 711 400 Q 1066.5 845 1422 38" stroke-dasharray="9 6" opacity="0.09"></path></g></svg>